<svg width="32" height="32" viewBox="0 0 32 32" fill="none" xmlns="http://www.w3.org/2000/svg">
  <rect width="32" height="32" rx="6" fill="#D2691E"/>
  <path d="M16 8C11.5817 8 8 11.5817 8 16C8 20.4183 11.5817 24 16 24C16.8284 24 17.5 23.3284 17.5 22.5C17.5 22.1134 17.3433 21.7629 17.09 21.5067C17.0343 21.45 16.9868 21.3867 16.9472 21.3175C16.8914 21.2197 16.8625 21.108 16.8625 20.9938V20.9938C16.8625 20.6658 17.1284 20.4 17.4563 20.4H19.2C21.851 20.4 24 18.251 24 15.6C24 11.4026 20.4183 8 16 8ZM11.5 16C10.6716 16 10 15.3284 10 14.5C10 13.6716 10.6716 13 11.5 13C12.3284 13 13 13.6716 13 14.5C13 15.3284 12.3284 16 11.5 16ZM14.5 12C13.6716 12 13 11.3284 13 10.5C13 9.67157 13.6716 9 14.5 9C15.3284 9 16 9.67157 16 10.5C16 11.3284 15.3284 12 14.5 12ZM18.5 12C17.6716 12 17 11.3284 17 10.5C17 9.67157 17.6716 9 18.5 9C19.3284 9 20 9.67157 20 10.5C20 11.3284 19.3284 12 18.5 12ZM21.5 16C20.6716 16 20 15.3284 20 14.5C20 13.6716 20.6716 13 21.5 13C22.3284 13 23 13.6716 23 14.5C23 15.3284 22.3284 16 21.5 16Z" fill="white"/>
</svg>
